<?xml version="1.0" encoding="UTF-8" standalone="no"?>
<svg
   xmlns:dc="http://purl.org/dc/elements/1.1/"
   xmlns:cc="http://creativecommons.org/ns#"
   xmlns:rdf="http://www.w3.org/1999/02/22-rdf-syntax-ns#"
   xmlns:svg="http://www.w3.org/2000/svg"
   xmlns="http://www.w3.org/2000/svg"
   xmlns:sodipodi="http://sodipodi.sourceforge.net/DTD/sodipodi-0.dtd"
   xmlns:inkscape="http://www.inkscape.org/namespaces/inkscape"
   width="15"
   height="15"
   viewBox="0 0 3.9687499 3.9687499"
   version="1.1"
   id="svg8"
   inkscape:version="1.0.1 (3bc2e813f5, 2020-09-07)"
   sodipodi:docname="list.svg">
  <defs
     id="defs2" />
  <sodipodi:namedview
     id="base"
     pagecolor="#ffffff"
     bordercolor="#666666"
     borderopacity="1.0"
     inkscape:pageopacity="0.0"
     inkscape:pageshadow="2"
     inkscape:zoom="7.9195959"
     inkscape:cx="40.847615"
     inkscape:cy="27.46846"
     inkscape:document-units="px"
     inkscape:current-layer="layer1"
     inkscape:document-rotation="0"
     showgrid="false"
     inkscape:window-width="1710"
     inkscape:window-height="1030"
     inkscape:window-x="128"
     inkscape:window-y="0"
     inkscape:window-maximized="0"
     units="px" />
  <metadata
     id="metadata5">
    <rdf:RDF>
      <cc:Work
         rdf:about="">
        <dc:format>image/svg+xml</dc:format>
        <dc:type
           rdf:resource="http://purl.org/dc/dcmitype/StillImage" />
        <dc:title></dc:title>
      </cc:Work>
    </rdf:RDF>
  </metadata>
  <g
     inkscape:label="Слой 1"
     inkscape:groupmode="layer"
     id="layer1">
    <path
       style="fill:#800000;stroke:#800000;stroke-width:0.172273"
       id="path10"
       d="m 0.36662125,2.3974126 c 0.13830073,0.1125793 0.26135285,0.2398017 0.38677945,0.3641645 0.1212426,0.1160026 0.2357276,0.2375832 0.3501962,0.3591842 0.1085947,0.1130602 0.2002435,0.2381999 0.2932727,0.3620433 0.040547,0.041598 0.069673,0.1260948 0.1198215,0.1577955 0.0072,0.00455 0.016586,0.012835 0.024301,0.00906 0.1047356,-0.051269 0.2028299,-0.113256 0.3042451,-0.1698837 0.028102,-0.082566 0.025917,-0.1703415 0.041988,-0.2547981 0.00439,-0.023066 0.011647,-0.045592 0.017472,-0.068388 C 1.9504402,2.9975429 2.0253527,2.8466101 2.1043796,2.6994603 2.1728514,2.5584975 2.2544166,2.4236913 2.3384835,2.2902515 2.4530628,2.137779 2.5832538,1.9949565 2.7151436,1.8548791 2.8559259,1.7178332 2.9985973,1.5824712 3.1329442,1.4400221 3.2473783,1.324502 3.3458006,1.1966412 3.4568699,1.0786282 3.5146269,1.0116762 3.5637175,0.93894049 3.6103412,0.86520019 c 0.034674,-0.065431 0.074542,-0.1285606 0.1048962,-0.1958372 0.019497,-0.03832 0.036427,-0.077704 0.052166,-0.1174371 0,0 -0.301689,0.1290083 -0.301689,0.1290083 v 0 c -0.01626,0.038956 -0.033499,0.077567 -0.052114,0.1156292 -0.032599,0.065517 -0.06879,0.1294352 -0.106392,0.1926366 C 3.2621284,1.061014 3.2133564,1.1312116 3.1566173,1.1957853 3.0517758,1.3145599 2.9541682,1.4388258 2.8426384,1.5526091 2.7064332,1.6940239 2.5621763,1.8285182 2.4238867,1.9681893 2.2921021,2.1111331 2.1575775,2.2537039 2.0451914,2.4102364 1.960979,2.544099 1.8814666,2.6803539 1.8121661,2.8213623 1.7345307,2.9711822 1.6613434,3.1245912 1.6141877,3.2850859 c -0.00594,0.024042 -0.013049,0.047867 -0.017827,0.072127 -0.016082,0.08162 -0.013503,0.1702621 -0.058395,0.2445371 0.091657,-0.044462 0.1830137,-0.089452 0.2749715,-0.1333863 0.00505,-0.00242 -0.00849,0.00926 -0.014168,0.00878 -0.00874,-7.447e-4 -0.01673,-0.00619 -0.022919,-0.011903 C 1.7345925,3.4271344 1.7138758,3.3719773 1.6760052,3.3314896 1.5790453,3.2089595 1.4869581,3.0828127 1.3780244,2.9687206 1.2634563,2.8465996 1.1479802,2.7251927 1.0269009,2.6084356 0.8993832,2.4878707 0.7727564,2.3660776 0.65327114,2.2387358 c 0,0 -0.28665044,0.1586757 -0.28665044,0.1586757 z" />
  </g>
</svg>
